<svg width="42" height="42" viewBox="0 0 48 32" fill="none" xmlns="http://www.w3.org/2000/svg">
<path d="M21.5 20.7143C23.5412 20.7143 25.1877 18.985 25.1877 16.8571C25.1877 14.7293 23.5412 13 21.5 13C19.4589 13 17.8 14.7293 17.8 16.8571C17.8 18.985 19.4589 20.7143 21.5 20.7143ZM21.5 23.2857C18.6202 23.2857 12.8667 24.79 12.8667 27.7857V31H30.1334V27.7857C30.1334 24.79 24.3799 23.2857 21.5 23.2857Z" fill="white"/>
<path d="M11.6335 20.7143C9.59233 20.7143 7.94583 18.985 7.94583 16.8571C7.94583 14.7293 9.59233 13 11.6335 13C13.6747 13 15.3335 14.7293 15.3335 16.8571C15.3335 18.985 13.6747 20.7143 11.6335 20.7143ZM11.6335 23.2857C11.9912 23.2857 12.392 23.3114 12.8237 23.3564C11.393 24.43 10.4002 25.8764 10.4002 27.7857V31H3.00016V27.7857C3.00016 24.79 8.75366 23.2857 11.6335 23.2857Z" fill="white"/>
<path d="M31.3665 20.7143C33.4077 20.7143 35.0542 18.985 35.0542 16.8571C35.0542 14.7293 33.4077 13 31.3665 13C29.3253 13 27.6665 14.7293 27.6665 16.8571C27.6665 18.985 29.3253 20.7143 31.3665 20.7143ZM31.3665 23.2857C31.0088 23.2857 30.608 23.3114 30.1763 23.3564C31.607 24.43 32.5998 25.8764 32.5998 27.7857V31H39.9998V27.7857C39.9998 24.79 34.2463 23.2857 31.3665 23.2857Z" fill="white"/>
</svg>
