<svg width="42" height="42" viewBox="0 0 42 42" fill="none" xmlns="http://www.w3.org/2000/svg">
<g clip-path="url(#clip0_886_476)">
<path d="M27.5455 20.8571C30.2536 20.8571 32.4382 18.6475 32.4382 15.9286C32.4382 13.2096 30.2536 11 27.5455 11C24.8373 11 22.6364 13.2096 22.6364 15.9286C22.6364 18.6475 24.8373 20.8571 27.5455 20.8571ZM14.4545 20.8571C17.1627 20.8571 19.3473 18.6475 19.3473 15.9286C19.3473 13.2096 17.1627 11 14.4545 11C11.7464 11 9.54545 13.2096 9.54545 15.9286C9.54545 18.6475 11.7464 20.8571 14.4545 20.8571ZM14.4545 24.1429C10.6336 24.1429 3 26.065 3 29.8929V34H25.9091V29.8929C25.9091 26.065 18.2755 24.1429 14.4545 24.1429ZM27.5455 24.1429C27.0709 24.1429 26.5391 24.1757 25.9664 24.2332C27.8645 25.605 29.1818 27.4532 29.1818 29.8929V34H39V29.8929C39 26.065 31.3664 24.1429 27.5455 24.1429Z" fill="white"/>
</g>
<defs>
<clipPath id="clip0_886_476">
<rect width="42" height="42" rx="3" fill="white"/>
</clipPath>
</defs>
</svg>
