<svg width="42" height="42" viewBox="0 0 42 42" fill="none" xmlns="http://www.w3.org/2000/svg">
<path d="M28 32H28.5V31.5V7V6.5H28H12.25H11.75V7V31.5V32H12.25H28ZM13.125 2.25H27.125C29.2639 2.25 31 3.98614 31 6.125V35.875C31 38.0139 29.2639 39.75 27.125 39.75H13.125C10.9861 39.75 9.25 38.0139 9.25 35.875V6.125C9.25 3.98614 10.9861 2.25 13.125 2.25ZM17 35.875C17 37.6036 18.3964 39 20.125 39C21.8536 39 23.25 37.6036 23.25 35.875C23.25 34.1464 21.8536 32.75 20.125 32.75C18.3964 32.75 17 34.1464 17 35.875Z" fill="white" stroke="white"/>
</svg>
