<svg width="42" height="43" viewBox="0 0 42 43" fill="none" xmlns="http://www.w3.org/2000/svg">
<path d="M22.5642 33.4548L22.5649 33.4557C22.9119 33.8553 23.125 34.3679 23.125 34.9375C23.125 36.1596 22.1653 37.125 21 37.125C12.5897 37.125 5.75 30.1396 5.75 21.5C5.75 12.8604 12.5897 5.875 21 5.875C29.4668 5.875 36.25 12.1087 36.25 19.7083C36.25 24.3883 32.5428 28.1667 28 28.1667H24.9025C23.1628 28.1667 21.7775 29.6021 21.7775 31.3542C21.7775 32.1637 22.089 32.9049 22.5642 33.4548ZM8.25 18.8125C8.25 20.5646 9.63533 22 11.375 22C13.1147 22 14.5 20.5646 14.5 18.8125C14.5 17.0604 13.1147 15.625 11.375 15.625C9.63533 15.625 8.25 17.0604 8.25 18.8125ZM13.5 11.6458C13.5 13.3979 14.8853 14.8333 16.625 14.8333C18.3647 14.8333 19.75 13.3979 19.75 11.6458C19.75 9.89376 18.3647 8.45833 16.625 8.45833C14.8853 8.45833 13.5 9.89376 13.5 11.6458ZM22.25 11.6458C22.25 13.3979 23.6353 14.8333 25.375 14.8333C27.1147 14.8333 28.5 13.3979 28.5 11.6458C28.5 9.89376 27.1147 8.45833 25.375 8.45833C23.6353 8.45833 22.25 9.89376 22.25 11.6458ZM27.5 18.8125C27.5 20.5646 28.8853 22 30.625 22C32.3647 22 33.75 20.5646 33.75 18.8125C33.75 17.0604 32.3647 15.625 30.625 15.625C28.8853 15.625 27.5 17.0604 27.5 18.8125Z" fill="white" stroke="white"/>
</svg>
