<?xml version="1.0" standalone="no"?>
<!DOCTYPE svg PUBLIC "-//W3C//DTD SVG 20010904//EN"
 "http://www.w3.org/TR/2001/REC-SVG-20010904/DTD/svg10.dtd">
<svg version="1.0" xmlns="http://www.w3.org/2000/svg"
 width="64.000000pt" height="64.000000pt" viewBox="0 0 64.000000 64.000000"
 preserveAspectRatio="xMidYMid meet">
<metadata>
Created by potrace 1.10, written by Peter Selinger 2001-2011
</metadata>
<g transform="translate(0.000000,64.000000) scale(0.100000,-0.100000)"
fill="#000000" stroke="none">
<path d="M94 521 c-17 -10 -40 -31 -52 -46 -21 -26 -22 -39 -22 -196 l0 -169
35 0 35 0 0 79 0 79 35 -11 c46 -14 102 3 140 43 23 24 30 41 33 88 4 52 1 61
-23 90 -52 62 -122 79 -181 43z m128 -50 c67 -60 28 -166 -62 -166 -105 0
-132 146 -35 186 37 15 64 9 97 -20z m-141 -195 c-7 -8 -16 -36 -21 -63 -7
-44 -8 -41 -9 37 l-1 84 22 -21 c17 -18 19 -25 9 -37z"/>
<path d="M155 450 c4 -6 1 -17 -5 -26 -10 -11 -16 -12 -26 -3 -11 9 -14 8 -14
-4 0 -21 27 -47 49 -47 36 0 56 51 29 78 -15 15 -42 16 -33 2z"/>
<path d="M410 521 c-65 -34 -75 -65 -78 -247 l-4 -162 41 -4 41 -4 0 83 0 82
30 -11 c39 -13 90 -3 124 23 137 107 -1 322 -154 240z m110 -36 c103 -53 34
-211 -76 -175 -81 27 -86 136 -9 178 28 16 51 15 85 -3z m-126 -180 c13 -13
13 -20 3 -35 -6 -11 -15 -20 -18 -20 -9 0 -19 27 -19 51 0 23 13 24 34 4z"/>
<path d="M467 439 c5 -19 3 -21 -20 -17 -32 6 -34 -2 -9 -32 36 -45 99 -1 72
50 -15 28 -50 27 -43 -1z"/>
</g>
</svg>
