<svg width="36" height="35" viewBox="0 0 36 35" fill="none" xmlns="http://www.w3.org/2000/svg">
<path d="M17.9652 8.40995L17.6159 8.06899L10.6558 1.27462C10.3971 1.03666 10.0821 0.916624 9.75766 0.916624C9.44404 0.916624 9.11638 1.04095 8.88192 1.26983L1.28692 8.684C0.8054 9.15405 0.8054 9.90711 1.28692 10.3772L8.25192 17.1763L8.61844 17.5341L8.25192 17.8919L1.28692 24.6911C0.8054 25.1611 0.8054 25.9142 1.28692 26.3843L8.88192 33.7984C9.37018 34.2751 10.1626 34.2751 10.6509 33.7984L17.6159 26.9993L17.9652 26.6583L18.3144 26.9993L25.2794 33.7984C25.527 34.0401 25.835 34.1516 26.1727 34.1516C26.4971 34.1516 26.8121 34.0316 27.0708 33.7936L34.6609 26.3843C35.1423 25.9143 35.1424 25.1616 34.6613 24.6915L17.9652 8.40995ZM17.9652 8.40995L18.3144 8.06899L25.2794 1.26983C25.7677 0.793195 26.5601 0.793195 27.0484 1.26983L34.6434 8.684C35.1249 9.15405 35.1249 9.90711 34.6434 10.3772L27.6784 17.1763L28.0277 17.5341L27.6788 17.8923L34.6609 24.6911L17.9652 8.40995ZM9.40888 16.0816L9.75862 16.422L10.1074 16.0806L16.4424 9.87935L16.8079 9.52155L16.4419 9.16425L10.1069 2.98009L9.75766 2.63913L9.40839 2.98009L3.05589 9.18134L2.68887 9.53962L3.05638 9.89739L9.40888 16.0816ZM25.8064 32.1057L26.1561 32.4462L26.5049 32.1048L32.8399 25.9035L33.2054 25.5457L32.8394 25.1884L26.5044 19.0043L26.1552 18.6633L25.8059 19.0043L19.4534 25.2055L19.0864 25.5638L19.4539 25.9216L25.8064 32.1057ZM20.2502 14.0833C20.2502 12.8563 19.2274 11.875 18.0002 11.875C16.7729 11.875 15.7502 12.8563 15.7502 14.0833C15.7502 15.3103 16.7729 16.2916 18.0002 16.2916C19.2274 16.2916 20.2502 15.3103 20.2502 14.0833ZM12.2502 17.5C12.2502 18.727 13.2729 19.7083 14.5002 19.7083C15.7274 19.7083 16.7502 18.727 16.7502 17.5C16.7502 16.2729 15.7274 15.2916 14.5002 15.2916C13.2729 15.2916 12.2502 16.2729 12.2502 17.5ZM15.7502 20.9166C15.7502 22.1436 16.7729 23.125 18.0002 23.125C19.2274 23.125 20.2502 22.1436 20.2502 20.9166C20.2502 19.6896 19.2274 18.7083 18.0002 18.7083C16.7729 18.7083 15.7502 19.6896 15.7502 20.9166ZM23.7502 17.5C23.7502 16.2729 22.7274 15.2916 21.5002 15.2916C20.2729 15.2916 19.2502 16.2729 19.2502 17.5C19.2502 18.727 20.2729 19.7083 21.5002 19.7083C22.7274 19.7083 23.7502 18.727 23.7502 17.5Z" fill="white" stroke="white"/>
</svg>
